<svg xmlns="http://www.w3.org/2000/svg" xmlns:xlink="http://www.w3.org/1999/xlink" width="2000" zoomAndPan="magnify" viewBox="0 0 1500 1499.999933" height="2000" preserveAspectRatio="xMidYMid meet" version="1.0"><path fill="#4386ce" d="M 750 109.292969 C 396.144531 109.292969 109.285156 396.136719 109.285156 750 C 109.285156 1103.863281 396.144531 1390.707031 750 1390.707031 C 1103.863281 1390.707031 1390.707031 1103.863281 1390.707031 750 C 1390.707031 396.136719 1103.863281 109.292969 750 109.292969 Z M 750 1500 C 335.789062 1500 0 1164.210938 0 750 C 0 335.789062 335.789062 0 750 0 C 1164.210938 0 1500 335.789062 1500 750 C 1500 1164.210938 1164.210938 1500 750 1500 " fill-opacity="1" fill-rule="nonzero"/><path fill="#6dcfe1" d="M 509.457031 987.605469 C 576.71875 1182.847656 774.125 1296.246094 971.265625 1264.242188 C 950.566406 1275.617188 928.660156 1285.402344 905.566406 1293.367188 C 687.246094 1368.558594 449.289062 1252.539062 374.082031 1034.230469 C 298.871094 815.914062 414.890625 577.964844 633.207031 502.738281 C 656.292969 494.800781 679.59375 488.992188 702.894531 485.210938 C 527.886719 581.433594 442.203125 792.363281 509.457031 987.605469 " fill-opacity="1" fill-rule="nonzero"/><path fill="#99dde6" d="M 844.136719 1080.726562 C 981.644531 1157.613281 1151.617188 1121.785156 1247.503906 1003.394531 C 1241.5 1020.398438 1234.027344 1037.09375 1224.917969 1053.347656 C 1138.945312 1207.101562 944.578125 1262.042969 790.816406 1176.066406 C 637.058594 1090.074219 582.121094 895.710938 668.113281 741.949219 C 677.203125 725.695312 687.515625 710.566406 698.855469 696.578125 C 648.183594 840.261719 706.640625 1003.808594 844.136719 1080.726562 " fill-opacity="1" fill-rule="nonzero"/><path fill="#4ac0d8" d="M 553.136719 437.066406 C 311.964844 586.410156 219.925781 885.308594 322.59375 1139.71875 C 301.070312 1115.453125 281.308594 1089.035156 263.65625 1060.539062 C 96.652344 790.84375 179.898438 436.851562 449.582031 269.847656 C 719.269531 102.847656 1073.269531 186.089844 1240.273438 455.785156 C 1257.9375 484.292969 1272.753906 513.734375 1284.894531 543.832031 C 1102.894531 338.539062 794.316406 287.726562 553.136719 437.066406 " fill-opacity="1" fill-rule="nonzero"/></svg>